<svg xmlns="http://www.w3.org/2000/svg" width="1180" height="760" viewBox="0 0 1180 760" fill="none">
<rect width="1180" height="760" fill="#f6efe3" />

    
    <text x="72" y="52" font-family="Outfit, ui-sans-serif, system-ui, sans-serif" font-size="11" letter-spacing="0.12em" fill="#a06b4a">FIGURA</text>
    <text x="72" y="82" font-family="Cormorant Garamond, Georgia, serif" font-size="30" fill="#231b17">Serie histórica nacional</text>
    <text x="72" y="106" font-family="Outfit, ui-sans-serif, system-ui, sans-serif" font-size="12.5" fill="#6e6258">Muertes por diabetes e insulina comprada, 2013–2024</text>
    <line x1="72" y1="122" x2="1108" y2="122" stroke="#d8ccb9" stroke-width="1" />
    
    <line x1="92" y1="644.0" x2="1062" y2="644.0" stroke="#d8ccb9" stroke-width="1" /><text x="78" y="648.0" text-anchor="end" font-family="Outfit, ui-sans-serif, system-ui, sans-serif" font-size="11" fill="#d85240">0</text><line x1="92" y1="536.1" x2="1062" y2="536.1" stroke="#d8ccb9" stroke-width="1" /><text x="78" y="540.1" text-anchor="end" font-family="Outfit, ui-sans-serif, system-ui, sans-serif" font-size="11" fill="#d85240">1.500</text><line x1="92" y1="428.1" x2="1062" y2="428.1" stroke="#d8ccb9" stroke-width="1" /><text x="78" y="432.1" text-anchor="end" font-family="Outfit, ui-sans-serif, system-ui, sans-serif" font-size="11" fill="#d85240">3.000</text><line x1="92" y1="320.2" x2="1062" y2="320.2" stroke="#d8ccb9" stroke-width="1" /><text x="78" y="324.2" text-anchor="end" font-family="Outfit, ui-sans-serif, system-ui, sans-serif" font-size="11" fill="#d85240">4.500</text><line x1="92" y1="212.2" x2="1062" y2="212.2" stroke="#d8ccb9" stroke-width="1" /><text x="78" y="216.2" text-anchor="end" font-family="Outfit, ui-sans-serif, system-ui, sans-serif" font-size="11" fill="#d85240">6.000</text><text x="1076" y="648.0" font-family="Outfit, ui-sans-serif, system-ui, sans-serif" font-size="11" fill="#4d8595">$0</text><text x="1076" y="527.0" font-family="Outfit, ui-sans-serif, system-ui, sans-serif" font-size="11" fill="#4d8595">$1,5M</text><text x="1076" y="405.9" font-family="Outfit, ui-sans-serif, system-ui, sans-serif" font-size="11" fill="#4d8595">$3,0M</text><text x="1076" y="284.9" font-family="Outfit, ui-sans-serif, system-ui, sans-serif" font-size="11" fill="#4d8595">$4,5M</text><text x="1076" y="163.8" font-family="Outfit, ui-sans-serif, system-ui, sans-serif" font-size="11" fill="#4d8595">$6,0M</text>
    <line x1="92.0" y1="644" x2="92.0" y2="652" stroke="#d8ccb9" stroke-width="1" /><text x="92.0" y="672" text-anchor="middle" font-family="Outfit, ui-sans-serif, system-ui, sans-serif" font-size="11" fill="#6e6258">2013</text><line x1="180.2" y1="644" x2="180.2" y2="652" stroke="#d8ccb9" stroke-width="1" /><text x="180.2" y="672" text-anchor="middle" font-family="Outfit, ui-sans-serif, system-ui, sans-serif" font-size="11" fill="#6e6258">2014</text><line x1="268.4" y1="644" x2="268.4" y2="652" stroke="#d8ccb9" stroke-width="1" /><text x="268.4" y="672" text-anchor="middle" font-family="Outfit, ui-sans-serif, system-ui, sans-serif" font-size="11" fill="#6e6258">2015</text><line x1="356.5" y1="644" x2="356.5" y2="652" stroke="#d8ccb9" stroke-width="1" /><text x="356.5" y="672" text-anchor="middle" font-family="Outfit, ui-sans-serif, system-ui, sans-serif" font-size="11" fill="#6e6258">2016</text><line x1="444.7" y1="644" x2="444.7" y2="652" stroke="#d8ccb9" stroke-width="1" /><text x="444.7" y="672" text-anchor="middle" font-family="Outfit, ui-sans-serif, system-ui, sans-serif" font-size="11" fill="#6e6258">2017</text><line x1="532.9" y1="644" x2="532.9" y2="652" stroke="#d8ccb9" stroke-width="1" /><text x="532.9" y="672" text-anchor="middle" font-family="Outfit, ui-sans-serif, system-ui, sans-serif" font-size="11" fill="#6e6258">2018</text><line x1="621.1" y1="644" x2="621.1" y2="652" stroke="#d8ccb9" stroke-width="1" /><text x="621.1" y="672" text-anchor="middle" font-family="Outfit, ui-sans-serif, system-ui, sans-serif" font-size="11" fill="#6e6258">2019</text><line x1="709.3" y1="644" x2="709.3" y2="652" stroke="#d8ccb9" stroke-width="1" /><text x="709.3" y="672" text-anchor="middle" font-family="Outfit, ui-sans-serif, system-ui, sans-serif" font-size="11" fill="#6e6258">2020</text><line x1="797.5" y1="644" x2="797.5" y2="652" stroke="#d8ccb9" stroke-width="1" /><text x="797.5" y="672" text-anchor="middle" font-family="Outfit, ui-sans-serif, system-ui, sans-serif" font-size="11" fill="#6e6258">2021</text><line x1="885.6" y1="644" x2="885.6" y2="652" stroke="#d8ccb9" stroke-width="1" /><text x="885.6" y="672" text-anchor="middle" font-family="Outfit, ui-sans-serif, system-ui, sans-serif" font-size="11" fill="#6e6258">2022</text><line x1="973.8" y1="644" x2="973.8" y2="652" stroke="#d8ccb9" stroke-width="1" /><text x="973.8" y="672" text-anchor="middle" font-family="Outfit, ui-sans-serif, system-ui, sans-serif" font-size="11" fill="#6e6258">2023</text><line x1="1062.0" y1="644" x2="1062.0" y2="652" stroke="#d8ccb9" stroke-width="1" /><text x="1062.0" y="672" text-anchor="middle" font-family="Outfit, ui-sans-serif, system-ui, sans-serif" font-size="11" fill="#6e6258">2024</text>
    <path d="M 92.0 306.1 L 180.2 305.8 L 268.4 298.6 L 356.5 295.0 L 444.7 291.7 L 532.9 291.4 L 621.1 288.5 L 709.3 202.9 L 797.5 349.7 L 885.6 374.6 L 973.8 407.2 L 1062.0 390.9" stroke="#d85240" stroke-width="3.2" fill="none" />
    <path d="M 268.4 444.0 L 356.5 456.3 L 444.7 428.6 L 532.9 463.4 L 621.1 415.3 L 709.3 505.4 L 797.5 396.5 L 885.6 398.5 L 973.8 202.9 L 1062.0 346.1" stroke="#4d8595" stroke-width="2.6" fill="none" stroke-dasharray="8 6" />
    <circle cx="92.0" cy="306.1" r="4.5" fill="#d85240" stroke="#f6efe3" stroke-width="2" /><circle cx="180.2" cy="305.8" r="4.5" fill="#d85240" stroke="#f6efe3" stroke-width="2" /><circle cx="268.4" cy="298.6" r="4.5" fill="#d85240" stroke="#f6efe3" stroke-width="2" /><circle cx="356.5" cy="295.0" r="4.5" fill="#d85240" stroke="#f6efe3" stroke-width="2" /><circle cx="444.7" cy="291.7" r="4.5" fill="#d85240" stroke="#f6efe3" stroke-width="2" /><circle cx="532.9" cy="291.4" r="4.5" fill="#d85240" stroke="#f6efe3" stroke-width="2" /><circle cx="621.1" cy="288.5" r="4.5" fill="#d85240" stroke="#f6efe3" stroke-width="2" /><circle cx="709.3" cy="202.9" r="4.5" fill="#d85240" stroke="#f6efe3" stroke-width="2" /><circle cx="797.5" cy="349.7" r="4.5" fill="#d85240" stroke="#f6efe3" stroke-width="2" /><circle cx="885.6" cy="374.6" r="4.5" fill="#d85240" stroke="#f6efe3" stroke-width="2" /><circle cx="973.8" cy="407.2" r="4.5" fill="#d85240" stroke="#f6efe3" stroke-width="2" /><circle cx="1062.0" cy="390.9" r="4.5" fill="#d85240" stroke="#f6efe3" stroke-width="2" /><circle cx="268.4" cy="444.0" r="3.8" fill="#4d8595" stroke="#f6efe3" stroke-width="2" /><circle cx="356.5" cy="456.3" r="3.8" fill="#4d8595" stroke="#f6efe3" stroke-width="2" /><circle cx="444.7" cy="428.6" r="3.8" fill="#4d8595" stroke="#f6efe3" stroke-width="2" /><circle cx="532.9" cy="463.4" r="3.8" fill="#4d8595" stroke="#f6efe3" stroke-width="2" /><circle cx="621.1" cy="415.3" r="3.8" fill="#4d8595" stroke="#f6efe3" stroke-width="2" /><circle cx="709.3" cy="505.4" r="3.8" fill="#4d8595" stroke="#f6efe3" stroke-width="2" /><circle cx="797.5" cy="396.5" r="3.8" fill="#4d8595" stroke="#f6efe3" stroke-width="2" /><circle cx="885.6" cy="398.5" r="3.8" fill="#4d8595" stroke="#f6efe3" stroke-width="2" /><circle cx="973.8" cy="202.9" r="3.8" fill="#4d8595" stroke="#f6efe3" stroke-width="2" /><circle cx="1062.0" cy="346.1" r="3.8" fill="#4d8595" stroke="#f6efe3" stroke-width="2" />
    <rect x="569.3" y="98.9" width="224" height="72" rx="6" fill="#f3e3dc" stroke="#e5b1a6" stroke-width="1" />
    <text x="583.3" y="121.9" font-family="Outfit, ui-sans-serif, system-ui, sans-serif" font-size="11.5" fill="#d85240" font-weight="700">2020: 6.129 muertes</text>
    <text x="583.3" y="142.9" font-family="Outfit, ui-sans-serif, system-ui, sans-serif" font-size="10.5" fill="#6e6258">pico nacional de la serie</text>
    <text x="583.3" y="162.9" font-family="Outfit, ui-sans-serif, system-ui, sans-serif" font-size="10.5" fill="#4d8595">insulina: mínimo del período reciente</text>
    <text x="92" y="132" font-family="Outfit, ui-sans-serif, system-ui, sans-serif" font-size="11" letter-spacing="0.12em" fill="#d85240">MUERTES POR DIABETES</text>
    <text x="1062" y="132" text-anchor="end" font-family="Outfit, ui-sans-serif, system-ui, sans-serif" font-size="11" letter-spacing="0.12em" fill="#4d8595">COMPRAS PÚBLICAS DE INSULINA (USD)</text>
    
    <line x1="72" y1="706" x2="1108" y2="706" stroke="#d8ccb9" stroke-width="1" />
    <text x="72" y="730" font-family="Outfit, ui-sans-serif, system-ui, sans-serif" font-size="11" fill="#6e6258">Fuente: INEC Defunciones 2013–2024; SERCOP 2015–2024. Elaboración propia.</text>
    
    
</svg>
