<svg xmlns="http://www.w3.org/2000/svg" width="1180" height="920" viewBox="0 0 1180 920" fill="none">
<rect width="1180" height="920" fill="#f6efe3" />

    <text x="72" y="52" font-family="Outfit, ui-sans-serif, system-ui, sans-serif" font-size="11" letter-spacing="0.12em" fill="#a06b4a">FIGURA</text>
    <text x="72" y="82" font-family="Cormorant Garamond, Georgia, serif" font-size="30" fill="#231b17">Brecha territorial</text>
    <text x="72" y="106" font-family="Outfit, ui-sans-serif, system-ui, sans-serif" font-size="12.5" fill="#6e6258">Mortalidad acumulada e insulina per cápita por provincia</text>
    <line x1="72" y1="122" x2="1108" y2="122" stroke="#d8ccb9" stroke-width="1" />
    <text x="240" y="140" font-family="Outfit, ui-sans-serif, system-ui, sans-serif" font-size="11" letter-spacing="0.12em" fill="#d85240">MORTALIDAD ACUMULADA POR 100.000 HAB.</text><text x="1060" y="140" text-anchor="end" font-family="Outfit, ui-sans-serif, system-ui, sans-serif" font-size="11" letter-spacing="0.12em" fill="#4d8595">INSULINA USD PER CÁPITA</text><text x="224" y="172" text-anchor="end" font-family="Outfit, ui-sans-serif, system-ui, sans-serif" font-size="12" fill="#231b17" font-weight="500">Santa Elena</text><rect x="240" y="158" width="562.3" height="12" rx="6" fill="#d85240" fill-opacity="0.88" /><text x="810.3" y="168" font-family="Outfit, ui-sans-serif, system-ui, sans-serif" font-size="11" fill="#d85240">358,9</text><rect x="863.2" y="158" width="135.4" height="12" rx="6" fill="#4d8595" fill-opacity="0.88" /><text x="1006.6" y="168" font-family="Outfit, ui-sans-serif, system-ui, sans-serif" font-size="11" fill="#4d8595">1,12</text><line x1="240" y1="184" x2="1060" y2="184" stroke="#d8ccb9" stroke-width="0.7" /><text x="224" y="224" text-anchor="end" font-family="Outfit, ui-sans-serif, system-ui, sans-serif" font-size="12" fill="#231b17" font-weight="500">Guayas</text><rect x="240" y="210" width="449.5" height="12" rx="6" fill="#d85240" fill-opacity="0.88" /><text x="697.5" y="220" font-family="Outfit, ui-sans-serif, system-ui, sans-serif" font-size="11" fill="#d85240">286,9</text><rect x="863.2" y="210" width="165.7" height="12" rx="6" fill="#4d8595" fill-opacity="0.88" /><text x="1036.9" y="220" font-family="Outfit, ui-sans-serif, system-ui, sans-serif" font-size="11" fill="#4d8595">1,37</text><line x1="240" y1="236" x2="1060" y2="236" stroke="#d8ccb9" stroke-width="0.7" /><text x="224" y="276" text-anchor="end" font-family="Outfit, ui-sans-serif, system-ui, sans-serif" font-size="12" fill="#d85240" font-weight="700">El Oro</text><rect x="240" y="262" width="312.4" height="12" rx="6" fill="#d85240" fill-opacity="0.88" /><text x="560.4" y="272" font-family="Outfit, ui-sans-serif, system-ui, sans-serif" font-size="11" fill="#d85240">199,4</text><rect x="863.2" y="262" width="77.4" height="12" rx="6" fill="#4d8595" fill-opacity="0.88" /><text x="948.6" y="272" font-family="Outfit, ui-sans-serif, system-ui, sans-serif" font-size="11" fill="#4d8595">0,64</text><line x1="240" y1="288" x2="1060" y2="288" stroke="#d8ccb9" stroke-width="0.7" /><text x="224" y="328" text-anchor="end" font-family="Outfit, ui-sans-serif, system-ui, sans-serif" font-size="12" fill="#d85240" font-weight="700">Esmeraldas</text><rect x="240" y="314" width="294.1" height="12" rx="6" fill="#d85240" fill-opacity="0.88" /><text x="542.1" y="324" font-family="Outfit, ui-sans-serif, system-ui, sans-serif" font-size="11" fill="#d85240">187,7</text><rect x="863.2" y="314" width="66.5" height="12" rx="6" fill="#4d8595" fill-opacity="0.88" /><text x="937.7" y="324" font-family="Outfit, ui-sans-serif, system-ui, sans-serif" font-size="11" fill="#4d8595">0,55</text><line x1="240" y1="340" x2="1060" y2="340" stroke="#d8ccb9" stroke-width="0.7" /><text x="224" y="380" text-anchor="end" font-family="Outfit, ui-sans-serif, system-ui, sans-serif" font-size="12" fill="#231b17" font-weight="500">Loja</text><rect x="240" y="366" width="262.3" height="12" rx="6" fill="#d85240" fill-opacity="0.88" /><text x="510.3" y="376" font-family="Outfit, ui-sans-serif, system-ui, sans-serif" font-size="11" fill="#d85240">167,4</text><rect x="863.2" y="366" width="160.8" height="12" rx="6" fill="#4d8595" fill-opacity="0.88" /><text x="1032.0" y="376" font-family="Outfit, ui-sans-serif, system-ui, sans-serif" font-size="11" fill="#4d8595">1,33</text><line x1="240" y1="392" x2="1060" y2="392" stroke="#d8ccb9" stroke-width="0.7" /><text x="224" y="432" text-anchor="end" font-family="Outfit, ui-sans-serif, system-ui, sans-serif" font-size="12" fill="#d85240" font-weight="700">Carchi</text><rect x="240" y="418" width="230.8" height="12" rx="6" fill="#d85240" fill-opacity="0.88" /><text x="478.8" y="428" font-family="Outfit, ui-sans-serif, system-ui, sans-serif" font-size="11" fill="#d85240">147,3</text><rect x="863.2" y="418" width="66.5" height="12" rx="6" fill="#4d8595" fill-opacity="0.88" /><text x="937.7" y="428" font-family="Outfit, ui-sans-serif, system-ui, sans-serif" font-size="11" fill="#4d8595">0,55</text><line x1="240" y1="444" x2="1060" y2="444" stroke="#d8ccb9" stroke-width="0.7" /><text x="224" y="484" text-anchor="end" font-family="Outfit, ui-sans-serif, system-ui, sans-serif" font-size="12" fill="#231b17" font-weight="500">Tungurahua</text><rect x="240" y="470" width="211.2" height="12" rx="6" fill="#d85240" fill-opacity="0.88" /><text x="459.2" y="480" font-family="Outfit, ui-sans-serif, system-ui, sans-serif" font-size="11" fill="#d85240">134,8</text><rect x="863.2" y="470" width="91.9" height="12" rx="6" fill="#4d8595" fill-opacity="0.88" /><text x="963.1" y="480" font-family="Outfit, ui-sans-serif, system-ui, sans-serif" font-size="11" fill="#4d8595">0,76</text><line x1="240" y1="496" x2="1060" y2="496" stroke="#d8ccb9" stroke-width="0.7" /><text x="224" y="536" text-anchor="end" font-family="Outfit, ui-sans-serif, system-ui, sans-serif" font-size="12" fill="#231b17" font-weight="500">Azuay</text><rect x="240" y="522" width="202.4" height="12" rx="6" fill="#d85240" fill-opacity="0.88" /><text x="450.4" y="532" font-family="Outfit, ui-sans-serif, system-ui, sans-serif" font-size="11" fill="#d85240">129,2</text><rect x="863.2" y="522" width="88.3" height="12" rx="6" fill="#4d8595" fill-opacity="0.88" /><text x="959.5" y="532" font-family="Outfit, ui-sans-serif, system-ui, sans-serif" font-size="11" fill="#4d8595">0,73</text><line x1="240" y1="548" x2="1060" y2="548" stroke="#d8ccb9" stroke-width="0.7" /><text x="224" y="588" text-anchor="end" font-family="Outfit, ui-sans-serif, system-ui, sans-serif" font-size="12" fill="#231b17" font-weight="500">Chimborazo</text><rect x="240" y="574" width="197.7" height="12" rx="6" fill="#d85240" fill-opacity="0.88" /><text x="445.7" y="584" font-family="Outfit, ui-sans-serif, system-ui, sans-serif" font-size="11" fill="#d85240">126,2</text><rect x="863.2" y="574" width="111.2" height="12" rx="6" fill="#4d8595" fill-opacity="0.88" /><text x="982.4" y="584" font-family="Outfit, ui-sans-serif, system-ui, sans-serif" font-size="11" fill="#4d8595">0,92</text><line x1="240" y1="600" x2="1060" y2="600" stroke="#d8ccb9" stroke-width="0.7" /><text x="224" y="640" text-anchor="end" font-family="Outfit, ui-sans-serif, system-ui, sans-serif" font-size="12" fill="#231b17" font-weight="500">Imbabura</text><rect x="240" y="626" width="191.0" height="12" rx="6" fill="#d85240" fill-opacity="0.88" /><text x="439.0" y="636" font-family="Outfit, ui-sans-serif, system-ui, sans-serif" font-size="11" fill="#d85240">121,9</text><rect x="863.2" y="626" width="112.5" height="12" rx="6" fill="#4d8595" fill-opacity="0.88" /><text x="983.7" y="636" font-family="Outfit, ui-sans-serif, system-ui, sans-serif" font-size="11" fill="#4d8595">0,93</text><line x1="240" y1="652" x2="1060" y2="652" stroke="#d8ccb9" stroke-width="0.7" /><text x="224" y="692" text-anchor="end" font-family="Outfit, ui-sans-serif, system-ui, sans-serif" font-size="12" fill="#d85240" font-weight="700">Cotopaxi</text><rect x="240" y="678" width="163.9" height="12" rx="6" fill="#d85240" fill-opacity="0.88" /><text x="411.9" y="688" font-family="Outfit, ui-sans-serif, system-ui, sans-serif" font-size="11" fill="#d85240">104,6</text><rect x="863.2" y="678" width="58.0" height="12" rx="6" fill="#4d8595" fill-opacity="0.88" /><text x="929.2" y="688" font-family="Outfit, ui-sans-serif, system-ui, sans-serif" font-size="11" fill="#4d8595">0,48</text><line x1="240" y1="704" x2="1060" y2="704" stroke="#d8ccb9" stroke-width="0.7" /><text x="224" y="744" text-anchor="end" font-family="Outfit, ui-sans-serif, system-ui, sans-serif" font-size="12" fill="#231b17" font-weight="500">Pichincha</text><rect x="240" y="730" width="151.3" height="12" rx="6" fill="#d85240" fill-opacity="0.88" /><text x="399.3" y="740" font-family="Outfit, ui-sans-serif, system-ui, sans-serif" font-size="11" fill="#d85240">96,6</text><rect x="863.2" y="730" width="187.4" height="12" rx="6" fill="#4d8595" fill-opacity="0.88" /><text x="1058.6" y="740" font-family="Outfit, ui-sans-serif, system-ui, sans-serif" font-size="11" fill="#4d8595">1,55</text><line x1="240" y1="756" x2="1060" y2="756" stroke="#d8ccb9" stroke-width="0.7" /><text x="240" y="852" font-family="Outfit, ui-sans-serif, system-ui, sans-serif" font-size="11" fill="#6e6258">Brecha crítica: provincias con mortalidad alta y cobertura pública relativamente baja.</text>
    <line x1="72" y1="866" x2="1108" y2="866" stroke="#d8ccb9" stroke-width="1" />
    <text x="72" y="890" font-family="Outfit, ui-sans-serif, system-ui, sans-serif" font-size="11" fill="#6e6258">Fuente: INEC Defunciones 2019–2024; SERCOP 2019–2024; Censo 2022. Elaboración propia.</text>
    
</svg>
