<svg xmlns="http://www.w3.org/2000/svg" width="1180" height="780" viewBox="0 0 1180 780" fill="none">
<rect width="1180" height="780" fill="#f6efe3" />

    <text x="72" y="52" font-family="Outfit, ui-sans-serif, system-ui, sans-serif" font-size="11" letter-spacing="0.12em" fill="#a06b4a">FIGURA</text>
    <text x="72" y="82" font-family="Cormorant Garamond, Georgia, serif" font-size="30" fill="#231b17">Desviación positiva</text>
    <text x="72" y="106" font-family="Outfit, ui-sans-serif, system-ui, sans-serif" font-size="12.5" fill="#6e6258">Pobreza estructural y mortalidad acumulada por diabetes</text>
    <line x1="72" y1="122" x2="1108" y2="122" stroke="#d8ccb9" stroke-width="1" />
    <line x1="227.1" y1="150" x2="227.1" y2="670" stroke="#d8ccb9" stroke-width="1" /><text x="227.1" y="698" text-anchor="middle" font-family="Outfit, ui-sans-serif, system-ui, sans-serif" font-size="11" fill="#6e6258">20%</text><line x1="396.3" y1="150" x2="396.3" y2="670" stroke="#d8ccb9" stroke-width="1" /><text x="396.3" y="698" text-anchor="middle" font-family="Outfit, ui-sans-serif, system-ui, sans-serif" font-size="11" fill="#6e6258">30%</text><line x1="565.5" y1="150" x2="565.5" y2="670" stroke="#d8ccb9" stroke-width="1" /><text x="565.5" y="698" text-anchor="middle" font-family="Outfit, ui-sans-serif, system-ui, sans-serif" font-size="11" fill="#6e6258">40%</text><line x1="734.8" y1="150" x2="734.8" y2="670" stroke="#d8ccb9" stroke-width="1" /><text x="734.8" y="698" text-anchor="middle" font-family="Outfit, ui-sans-serif, system-ui, sans-serif" font-size="11" fill="#6e6258">50%</text><line x1="904.0" y1="150" x2="904.0" y2="670" stroke="#d8ccb9" stroke-width="1" /><text x="904.0" y="698" text-anchor="middle" font-family="Outfit, ui-sans-serif, system-ui, sans-serif" font-size="11" fill="#6e6258">60%</text><line x1="1073.2" y1="150" x2="1073.2" y2="670" stroke="#d8ccb9" stroke-width="1" /><text x="1073.2" y="698" text-anchor="middle" font-family="Outfit, ui-sans-serif, system-ui, sans-serif" font-size="11" fill="#6e6258">70%</text><line x1="90" y1="670.0" x2="1102" y2="670.0" stroke="#d8ccb9" stroke-width="1" /><text x="76" y="674.0" text-anchor="end" font-family="Outfit, ui-sans-serif, system-ui, sans-serif" font-size="11" fill="#6e6258">0</text><line x1="90" y1="604.0" x2="1102" y2="604.0" stroke="#d8ccb9" stroke-width="1" /><text x="76" y="608.0" text-anchor="end" font-family="Outfit, ui-sans-serif, system-ui, sans-serif" font-size="11" fill="#6e6258">50</text><line x1="90" y1="538.0" x2="1102" y2="538.0" stroke="#d8ccb9" stroke-width="1" /><text x="76" y="542.0" text-anchor="end" font-family="Outfit, ui-sans-serif, system-ui, sans-serif" font-size="11" fill="#6e6258">100</text><line x1="90" y1="472.0" x2="1102" y2="472.0" stroke="#d8ccb9" stroke-width="1" /><text x="76" y="476.0" text-anchor="end" font-family="Outfit, ui-sans-serif, system-ui, sans-serif" font-size="11" fill="#6e6258">150</text><line x1="90" y1="406.0" x2="1102" y2="406.0" stroke="#d8ccb9" stroke-width="1" /><text x="76" y="410.0" text-anchor="end" font-family="Outfit, ui-sans-serif, system-ui, sans-serif" font-size="11" fill="#6e6258">200</text><line x1="90" y1="340.0" x2="1102" y2="340.0" stroke="#d8ccb9" stroke-width="1" /><text x="76" y="344.0" text-anchor="end" font-family="Outfit, ui-sans-serif, system-ui, sans-serif" font-size="11" fill="#6e6258">250</text><line x1="90" y1="274.0" x2="1102" y2="274.0" stroke="#d8ccb9" stroke-width="1" /><text x="76" y="278.0" text-anchor="end" font-family="Outfit, ui-sans-serif, system-ui, sans-serif" font-size="11" fill="#6e6258">300</text><line x1="90" y1="208.0" x2="1102" y2="208.0" stroke="#d8ccb9" stroke-width="1" /><text x="76" y="212.0" text-anchor="end" font-family="Outfit, ui-sans-serif, system-ui, sans-serif" font-size="11" fill="#6e6258">350</text><path d="M 157.7 457.2 L 323.5 478.8 L 420.0 491.4 L 423.4 491.8 L 442.0 494.3 L 453.8 495.7 L 508.0 502.9 L 550.3 508.4 L 552.0 508.5 L 555.4 509.1 L 612.9 516.5 L 678.9 525.2 L 689.1 526.5 L 711.1 529.3 L 736.5 532.7 L 783.8 538.8 L 880.3 551.5 L 890.5 552.8 L 905.7 554.8 L 927.7 557.5 L 932.8 558.2 L 954.8 561.1 L 995.4 566.4 L 1051.2 573.8" stroke="#a06b4a" stroke-width="2.2" fill="none" stroke-dasharray="7 5" /><circle cx="420.0" cy="614.3" r="7.5" fill="#7a9850" fill-opacity="0.9" stroke="#f6efe3" stroke-width="1.5" /><text x="430.0" y="618.3" font-family="Outfit, ui-sans-serif, system-ui, sans-serif" font-size="11" fill="#7a9850" font-weight="700">Galapagos</text><circle cx="552.0" cy="622.9" r="7.5" fill="#7a9850" fill-opacity="0.9" stroke="#f6efe3" stroke-width="1.5" /><text x="562.0" y="626.9" font-family="Outfit, ui-sans-serif, system-ui, sans-serif" font-size="11" fill="#7a9850" font-weight="700">Canar</text><circle cx="678.9" cy="627.5" r="7.5" fill="#7a9850" fill-opacity="0.9" stroke="#f6efe3" stroke-width="1.5" /><circle cx="890.5" cy="652.7" r="7.5" fill="#7a9850" fill-opacity="0.9" stroke="#f6efe3" stroke-width="1.5" /><text x="900.5" y="656.7" font-family="Outfit, ui-sans-serif, system-ui, sans-serif" font-size="11" fill="#7a9850" font-weight="700">Sucumbios</text><circle cx="880.3" cy="642.0" r="7.5" fill="#7a9850" fill-opacity="0.9" stroke="#f6efe3" stroke-width="1.5" /><text x="890.3" y="646.0" font-family="Outfit, ui-sans-serif, system-ui, sans-serif" font-size="11" fill="#7a9850" font-weight="700">Bolivar</text><circle cx="157.7" cy="542.5" r="7.5" fill="#7a9850" fill-opacity="0.9" stroke="#f6efe3" stroke-width="1.5" /><text x="167.7" y="546.5" font-family="Outfit, ui-sans-serif, system-ui, sans-serif" font-size="11" fill="#7a9850" font-weight="700">Pichincha</text><circle cx="905.7" cy="617.7" r="7.5" fill="#7a9850" fill-opacity="0.9" stroke="#f6efe3" stroke-width="1.5" /><circle cx="927.7" cy="616.9" r="7.5" fill="#7a9850" fill-opacity="0.9" stroke="#f6efe3" stroke-width="1.5" /><circle cx="932.8" cy="592.5" r="5" fill="#8f8478" fill-opacity="0.55" stroke="#f6efe3" stroke-width="1.5" /><circle cx="736.5" cy="561.2" r="5" fill="#8f8478" fill-opacity="0.55" stroke="#f6efe3" stroke-width="1.5" /><circle cx="783.8" cy="565.8" r="5" fill="#8f8478" fill-opacity="0.55" stroke="#f6efe3" stroke-width="1.5" /><circle cx="1051.2" cy="599.0" r="5" fill="#8f8478" fill-opacity="0.55" stroke="#f6efe3" stroke-width="1.5" /><circle cx="323.5" cy="499.4" r="5" fill="#8f8478" fill-opacity="0.55" stroke="#f6efe3" stroke-width="1.5" /><circle cx="442.0" cy="509.1" r="5" fill="#8f8478" fill-opacity="0.55" stroke="#f6efe3" stroke-width="1.5" /><circle cx="711.1" cy="531.9" r="5" fill="#8f8478" fill-opacity="0.55" stroke="#f6efe3" stroke-width="1.5" /><circle cx="423.4" cy="492.0" r="5" fill="#8f8478" fill-opacity="0.55" stroke="#f6efe3" stroke-width="1.5" /><circle cx="612.9" cy="503.4" r="5" fill="#8f8478" fill-opacity="0.55" stroke="#f6efe3" stroke-width="1.5" /><circle cx="995.4" cy="550.9" r="5" fill="#8f8478" fill-opacity="0.55" stroke="#f6efe3" stroke-width="1.5" /><circle cx="453.8" cy="475.5" r="5" fill="#8f8478" fill-opacity="0.55" stroke="#f6efe3" stroke-width="1.5" /><circle cx="555.4" cy="449.0" r="7.5" fill="#d85240" fill-opacity="0.9" stroke="#f6efe3" stroke-width="1.5" /><text x="565.4" y="453.0" font-family="Outfit, ui-sans-serif, system-ui, sans-serif" font-size="11" fill="#d85240" font-weight="700">Loja</text><circle cx="508.0" cy="406.8" r="7.5" fill="#d85240" fill-opacity="0.9" stroke="#f6efe3" stroke-width="1.5" /><text x="518.0" y="410.8" font-family="Outfit, ui-sans-serif, system-ui, sans-serif" font-size="11" fill="#d85240" font-weight="700">El Oro</text><circle cx="954.8" cy="422.2" r="7.5" fill="#d85240" fill-opacity="0.9" stroke="#f6efe3" stroke-width="1.5" /><text x="964.8" y="426.2" font-family="Outfit, ui-sans-serif, system-ui, sans-serif" font-size="11" fill="#d85240" font-weight="700">Esmeraldas</text><circle cx="550.3" cy="291.3" r="7.5" fill="#d85240" fill-opacity="0.9" stroke="#f6efe3" stroke-width="1.5" /><text x="560.3" y="295.3" font-family="Outfit, ui-sans-serif, system-ui, sans-serif" font-size="11" fill="#d85240" font-weight="700">Guayas</text><circle cx="689.1" cy="196.2" r="7.5" fill="#d85240" fill-opacity="0.9" stroke="#f6efe3" stroke-width="1.5" /><text x="699.1" y="200.2" font-family="Outfit, ui-sans-serif, system-ui, sans-serif" font-size="11" fill="#d85240" font-weight="700">Santa Elena</text><text x="596.0" y="712" text-anchor="middle" font-family="Outfit, ui-sans-serif, system-ui, sans-serif" font-size="11" letter-spacing="0.12em" fill="#6e6258">% HOGARES CON NBI</text><text x="28" y="410.0" transform="rotate(-90 28 410.0)" text-anchor="middle" font-family="Outfit, ui-sans-serif, system-ui, sans-serif" font-size="11" letter-spacing="0.12em" fill="#6e6258">MORTALIDAD ACUMULADA POR 100.000 HAB.</text><circle cx="880" cy="74" r="5" fill="#7a9850" /><text x="894" y="78" font-family="Outfit, ui-sans-serif, system-ui, sans-serif" font-size="11" fill="#6e6258">Resisten más</text><circle cx="984" cy="74" r="5" fill="#8f8478" fill-opacity="0.7" /><text x="998" y="78" font-family="Outfit, ui-sans-serif, system-ui, sans-serif" font-size="11" fill="#6e6258">Esperadas</text><circle cx="1086" cy="74" r="5" fill="#d85240" /><text x="1100" y="78" font-family="Outfit, ui-sans-serif, system-ui, sans-serif" font-size="11" fill="#6e6258">Mueren más</text>
    <line x1="72" y1="726" x2="1108" y2="726" stroke="#d8ccb9" stroke-width="1" />
    <text x="72" y="750" font-family="Outfit, ui-sans-serif, system-ui, sans-serif" font-size="11" fill="#6e6258">Fuente: INEC Defunciones 2019–2024; Censo 2022 NBI. Elaboración propia.</text>
    
</svg>
